<svg width="48" height="48" viewBox="0 0 48 48" fill="none" xmlns="http://www.w3.org/2000/svg">
  <defs>
    <linearGradient id="fs-tile" x1="0" y1="0" x2="48" y2="48">
      <stop offset="0" stop-color="#10b981"/>
      <stop offset="1" stop-color="#065f46"/>
    </linearGradient>
  </defs>
  <rect width="48" height="48" rx="11" fill="url(#fs-tile)"/>
  <circle cx="24" cy="24" r="16.5" stroke="white" stroke-opacity="0.45" stroke-width="1.6" stroke-dasharray="3.2 3.6" stroke-linecap="round"/>
  <path d="M24 11.5 C28 15.5 28.2 20.5 24 24 C19.8 20.5 20 15.5 24 11.5 Z" fill="white" fill-opacity="0.92"/>
  <path d="M24 11.5 C28 15.5 28.2 20.5 24 24 C19.8 20.5 20 15.5 24 11.5 Z" fill="white" fill-opacity="0.92" transform="rotate(72 24 24)"/>
  <path d="M24 11.5 C28 15.5 28.2 20.5 24 24 C19.8 20.5 20 15.5 24 11.5 Z" fill="white" fill-opacity="0.92" transform="rotate(144 24 24)"/>
  <path d="M24 11.5 C28 15.5 28.2 20.5 24 24 C19.8 20.5 20 15.5 24 11.5 Z" fill="white" fill-opacity="0.92" transform="rotate(216 24 24)"/>
  <path d="M24 11.5 C28 15.5 28.2 20.5 24 24 C19.8 20.5 20 15.5 24 11.5 Z" fill="white" fill-opacity="0.92" transform="rotate(288 24 24)"/>
  <circle cx="24" cy="24" r="3.1" fill="#065f46" stroke="white" stroke-width="1.4"/>
</svg>
